<svg width="32" height="32" viewBox="0 0 32 32" fill="none" xmlns="http://www.w3.org/2000/svg">
<path d="M23.0831 2H8.91731C7.08333 2.00197 5.32503 2.73139 4.02821 4.02821C2.73139 5.32503 2.00197 7.08333 2 8.91731V23.0827C2.00197 24.9167 2.73139 26.675 4.02821 27.9718C5.32503 29.2686 7.08333 29.998 8.91731 30H23.0831C24.9171 29.998 26.6753 29.2686 27.9721 27.9718C29.2688 26.6749 29.9981 24.9166 30 23.0827V8.91731C29.9981 7.08337 29.2688 5.32507 27.9721 4.02823C26.6753 2.7314 24.9171 2.00197 23.0831 2ZM27.3422 23.0827C27.3409 24.212 26.8918 25.2946 26.0934 26.0932C25.295 26.8918 24.2124 27.3411 23.0831 27.3426H8.91731C7.78797 27.3412 6.70529 26.892 5.90677 26.0934C5.10825 25.2948 4.65909 24.212 4.65781 23.0827V8.91731C4.65909 7.78797 5.10825 6.70525 5.90677 5.90664C6.70529 5.10804 7.78797 4.65876 8.91731 4.65737H23.0831C24.2124 4.65888 25.295 5.10821 26.0934 5.9068C26.8918 6.70539 27.3409 7.78805 27.3422 8.91731V23.0827Z" fill="black"/>
<path d="M16 9.33252C14.6813 9.33261 13.3923 9.72372 12.2959 10.4564C11.1994 11.1891 10.3449 12.2304 9.84034 13.4488C9.33576 14.6671 9.20379 16.0077 9.4611 17.3011C9.71842 18.5944 10.3535 19.7824 11.286 20.7148C12.2184 21.6472 13.4065 22.2822 14.6998 22.5394C15.9932 22.7967 17.3338 22.6646 18.5521 22.1599C19.7704 21.6553 20.8117 20.8007 21.5443 19.7042C22.2769 18.6078 22.6679 17.3187 22.6679 16C22.666 14.2322 21.9628 12.5374 20.7127 11.2874C19.4627 10.0374 17.7678 9.33437 16 9.33252ZM16 20.0101C15.2069 20.0101 14.4316 19.7748 13.7722 19.3341C13.1128 18.8934 12.5989 18.2671 12.2954 17.5343C11.992 16.8016 11.9126 15.9953 12.0674 15.2174C12.2222 14.4396 12.6042 13.7251 13.165 13.1643C13.7258 12.6035 14.4404 12.2216 15.2183 12.0669C15.9961 11.9122 16.8024 11.9917 17.5351 12.2952C18.2679 12.5987 18.8941 13.1127 19.3348 13.7722C19.7754 14.4316 20.0106 15.2069 20.0106 16C20.0095 17.0633 19.5866 18.0828 18.8347 18.8346C18.0828 19.5864 17.0633 20.0092 16 20.0101Z" fill="black"/>
<path d="M22.9409 7.27975C22.5889 7.27967 22.2448 7.38397 21.952 7.57948C21.6593 7.77499 21.4311 8.05292 21.2963 8.37812C21.1616 8.70332 21.1263 9.06118 21.1949 9.40645C21.2635 9.75172 21.433 10.0689 21.6819 10.3178C21.9308 10.5668 22.2479 10.7363 22.5931 10.805C22.9384 10.8737 23.2962 10.8385 23.6215 10.7038C23.9467 10.5691 24.2247 10.341 24.4203 10.0483C24.6159 9.75564 24.7202 9.41152 24.7202 9.0595C24.7202 8.58756 24.5328 8.13494 24.1991 7.80119C23.8655 7.46743 23.4129 7.27987 22.9409 7.27975Z" fill="black"/>
</svg>
