<svg width="32" height="32" viewBox="0 0 32 32" fill="none" xmlns="http://www.w3.org/2000/svg">
<path d="M25.2615 6H6.73846C5.48174 6 4.2765 6.49923 3.38786 7.38786C2.49923 8.2765 2 9.48174 2 10.7385V20.6462C2 21.9029 2.49923 23.1081 3.38786 23.9968C4.2765 24.8854 5.48174 25.3846 6.73846 25.3846H25.2615C26.5183 25.3846 27.7235 24.8854 28.6121 23.9968C29.5008 23.1081 30 21.9029 30 20.6462V10.7385C30 9.48174 29.5008 8.2765 28.6121 7.38786C27.7235 6.49923 26.5183 6 25.2615 6ZM21.4837 15.8818L13.0837 20.1895C13.051 20.2065 13.0145 20.2148 12.9777 20.2136C12.9409 20.2124 12.905 20.2018 12.8734 20.1828C12.8419 20.1638 12.8157 20.137 12.7975 20.105C12.7793 20.073 12.7695 20.0368 12.7692 20V11.3846C12.7695 11.3478 12.7793 11.3116 12.7975 11.2796C12.8157 11.2476 12.8419 11.2209 12.8734 11.2018C12.905 11.1828 12.9409 11.1722 12.9777 11.171C13.0145 11.1699 13.051 11.1781 13.0837 11.1951L21.4837 15.5028C21.519 15.5208 21.5486 15.5483 21.5693 15.5821C21.5899 15.6159 21.6009 15.6548 21.6009 15.6945C21.6009 15.7341 21.5899 15.773 21.5693 15.8068C21.5486 15.8406 21.519 15.8681 21.4837 15.8862V15.8818Z" fill="black"/>
</svg>
